# xmcd CD database file
#
# Track frame offsets:
#	150
#	31501
#	60752
#	106350
#	125286
#	147191
#	196036
#
# Disc length: 2806 seconds
#
# Revision: 3
# Processed by: cddbd v1.5.2PL0 Copyright (c) Steve Scherf et al.
# Submitted via: CDex 1.70beta2
#
DISCID=4b0af407
DTITLE=Contrabande - Slippery Lumps
DYEAR=2010
DGENRE=Jazz
TTITLE0=Contrabande - The Eyes in your Head (are getting closer and closer)
TTITLE1=Contrabande - Gulf of Aden
TTITLE2=Contrabande - Liberation Rituals
TTITLE3=Contrabande - Aureliens new slow Life
TTITLE4=Contrabande - Mr. Punch
TTITLE5=Contrabande - The end of Jack
TTITLE6=Contrabande - Petite Trafficantes - Grande Trafficantes
EXTD=YEAR: 2010
EXTT0=
EXTT1=
EXTT2=
EXTT3=
EXTT4=
EXTT5=
EXTT6=
PLAYORDER=
